<svg viewBox="0 0 720 200" xmlns="http://www.w3.org/2000/svg" role="img" aria-label="Daily unique visitors over the last 17 days">
<style>text { font-family: system-ui, -apple-system, "Segoe UI", sans-serif; }</style>
<rect x="0" y="0" width="720" height="200" rx="10" fill="#fcfcfb"/>
<text x="46" y="18" font-size="11" fill="#52514e">Unique visitors per day</text>
<line x1="46" y1="53.7" x2="704" y2="53.7" stroke="#e1e0d9" stroke-width="1"/>
<text x="38" y="57.7" text-anchor="end" font-size="10" fill="#898781">50</text>
<line x1="46" y1="172.0" x2="704" y2="172.0" stroke="#c3c2b7" stroke-width="1"/>
<path d="M 46.0 172.0 L 87.1 172.0 L 128.3 172.0 L 169.4 167.3 L 210.5 167.3 L 251.6 169.6 L 292.8 169.6 L 333.9 172.0 L 375.0 172.0 L 416.1 172.0 L 457.3 172.0 L 498.4 164.9 L 539.5 122.3 L 580.6 122.3 L 621.8 157.8 L 662.9 155.4 L 704.0 167.3 L 704.0 172.0 L 46.0 172.0 Z" fill="#2a78d6" fill-opacity="0.1" stroke="none"/>
<path d="M 46.0 172.0 L 87.1 172.0 L 128.3 172.0 L 169.4 167.3 L 210.5 167.3 L 251.6 169.6 L 292.8 169.6 L 333.9 172.0 L 375.0 172.0 L 416.1 172.0 L 457.3 172.0 L 498.4 164.9 L 539.5 122.3 L 580.6 122.3 L 621.8 157.8 L 662.9 155.4 L 704.0 167.3" fill="none" stroke="#2a78d6" stroke-width="2" stroke-linejoin="round" stroke-linecap="round"/>
<circle cx="704.0" cy="167.3" r="4" fill="#2a78d6" stroke="#fcfcfb" stroke-width="2"/>
<text x="704.0" y="157.3" text-anchor="end" font-size="12" font-weight="600" fill="#0b0b0b">2</text>
<text x="46" y="192" font-size="10" fill="#898781">Jul 24</text>
<text x="704" y="192" text-anchor="end" font-size="10" fill="#898781">Aug 9</text>
</svg>
