<svg viewBox="0 0 720 200" xmlns="http://www.w3.org/2000/svg" role="img" aria-label="Daily unique visitors over the last 41 days">
<style>text { font-family: system-ui, -apple-system, "Segoe UI", sans-serif; }</style>
<rect x="0" y="0" width="720" height="200" rx="10" fill="#1a1a19"/>
<text x="46" y="18" font-size="11" fill="#c3c2b7">Unique visitors per day</text>
<line x1="46" y1="53.7" x2="704" y2="53.7" stroke="#2c2c2a" stroke-width="1"/>
<text x="38" y="57.7" text-anchor="end" font-size="10" fill="#898781">50</text>
<line x1="46" y1="172.0" x2="704" y2="172.0" stroke="#383835" stroke-width="1"/>
<path d="M 46.0 172.0 L 62.5 172.0 L 78.9 172.0 L 95.3 167.3 L 111.8 167.3 L 128.3 169.6 L 144.7 169.6 L 161.1 172.0 L 177.6 172.0 L 194.1 172.0 L 210.5 172.0 L 227.0 164.9 L 243.4 122.3 L 259.9 122.3 L 276.3 157.8 L 292.8 155.4 L 309.2 167.3 L 325.6 157.8 L 342.1 153.1 L 358.6 153.1 L 375.0 155.4 L 391.4 146.0 L 407.9 169.6 L 424.3 167.3 L 440.8 172.0 L 457.3 160.2 L 473.7 162.5 L 490.2 162.5 L 506.6 164.9 L 523.0 150.7 L 539.5 157.8 L 556.0 153.1 L 572.4 164.9 L 588.9 167.3 L 605.3 172.0 L 621.8 167.3 L 638.2 172.0 L 654.6 164.9 L 671.1 153.1 L 687.5 157.8 L 704.0 167.3 L 704.0 172.0 L 46.0 172.0 Z" fill="#3987e5" fill-opacity="0.1" stroke="none"/>
<path d="M 46.0 172.0 L 62.5 172.0 L 78.9 172.0 L 95.3 167.3 L 111.8 167.3 L 128.3 169.6 L 144.7 169.6 L 161.1 172.0 L 177.6 172.0 L 194.1 172.0 L 210.5 172.0 L 227.0 164.9 L 243.4 122.3 L 259.9 122.3 L 276.3 157.8 L 292.8 155.4 L 309.2 167.3 L 325.6 157.8 L 342.1 153.1 L 358.6 153.1 L 375.0 155.4 L 391.4 146.0 L 407.9 169.6 L 424.3 167.3 L 440.8 172.0 L 457.3 160.2 L 473.7 162.5 L 490.2 162.5 L 506.6 164.9 L 523.0 150.7 L 539.5 157.8 L 556.0 153.1 L 572.4 164.9 L 588.9 167.3 L 605.3 172.0 L 621.8 167.3 L 638.2 172.0 L 654.6 164.9 L 671.1 153.1 L 687.5 157.8 L 704.0 167.3" fill="none" stroke="#3987e5" stroke-width="2" stroke-linejoin="round" stroke-linecap="round"/>
<circle cx="704.0" cy="167.3" r="4" fill="#3987e5" stroke="#1a1a19" stroke-width="2"/>
<text x="704.0" y="157.3" text-anchor="end" font-size="12" font-weight="600" fill="#ffffff">2</text>
<text x="46" y="192" font-size="10" fill="#898781">Jul 24</text>
<text x="704" y="192" text-anchor="end" font-size="10" fill="#898781">Sep 2</text>
</svg>
