<svg viewBox="0 0 720 200" xmlns="http://www.w3.org/2000/svg" role="img" aria-label="Daily unique visitors over the last 69 days">
<style>text { font-family: system-ui, -apple-system, "Segoe UI", sans-serif; }</style>
<rect x="0" y="0" width="720" height="200" rx="10" fill="#1a1a19"/>
<text x="46" y="18" font-size="11" fill="#c3c2b7">Unique visitors per day</text>
<line x1="46" y1="53.7" x2="704" y2="53.7" stroke="#2c2c2a" stroke-width="1"/>
<text x="38" y="57.7" text-anchor="end" font-size="10" fill="#898781">50</text>
<line x1="46" y1="172.0" x2="704" y2="172.0" stroke="#383835" stroke-width="1"/>
<path d="M 46.0 172.0 L 55.7 172.0 L 65.4 172.0 L 75.0 167.3 L 84.7 167.3 L 94.4 169.6 L 104.1 169.6 L 113.7 172.0 L 123.4 172.0 L 133.1 172.0 L 142.8 172.0 L 152.4 164.9 L 162.1 122.3 L 171.8 122.3 L 181.5 157.8 L 191.1 155.4 L 200.8 167.3 L 210.5 157.8 L 220.2 153.1 L 229.9 153.1 L 239.5 155.4 L 249.2 146.0 L 258.9 169.6 L 268.6 167.3 L 278.2 172.0 L 287.9 160.2 L 297.6 162.5 L 307.3 162.5 L 316.9 164.9 L 326.6 150.7 L 336.3 157.8 L 346.0 153.1 L 355.6 164.9 L 365.3 167.3 L 375.0 172.0 L 384.7 167.3 L 394.4 172.0 L 404.0 164.9 L 413.7 153.1 L 423.4 157.8 L 433.1 167.3 L 442.7 172.0 L 452.4 167.3 L 462.1 172.0 L 471.8 167.3 L 481.4 162.5 L 491.1 162.5 L 500.8 164.9 L 510.5 169.6 L 520.1 169.6 L 529.8 169.6 L 539.5 167.3 L 549.2 164.9 L 558.9 167.3 L 568.5 169.6 L 578.2 167.3 L 587.9 160.2 L 597.6 167.3 L 607.2 169.6 L 616.9 164.9 L 626.6 167.3 L 636.3 164.9 L 645.9 164.9 L 655.6 169.6 L 665.3 169.6 L 675.0 169.6 L 684.6 164.9 L 694.3 160.2 L 704.0 157.8 L 704.0 172.0 L 46.0 172.0 Z" fill="#3987e5" fill-opacity="0.1" stroke="none"/>
<path d="M 46.0 172.0 L 55.7 172.0 L 65.4 172.0 L 75.0 167.3 L 84.7 167.3 L 94.4 169.6 L 104.1 169.6 L 113.7 172.0 L 123.4 172.0 L 133.1 172.0 L 142.8 172.0 L 152.4 164.9 L 162.1 122.3 L 171.8 122.3 L 181.5 157.8 L 191.1 155.4 L 200.8 167.3 L 210.5 157.8 L 220.2 153.1 L 229.9 153.1 L 239.5 155.4 L 249.2 146.0 L 258.9 169.6 L 268.6 167.3 L 278.2 172.0 L 287.9 160.2 L 297.6 162.5 L 307.3 162.5 L 316.9 164.9 L 326.6 150.7 L 336.3 157.8 L 346.0 153.1 L 355.6 164.9 L 365.3 167.3 L 375.0 172.0 L 384.7 167.3 L 394.4 172.0 L 404.0 164.9 L 413.7 153.1 L 423.4 157.8 L 433.1 167.3 L 442.7 172.0 L 452.4 167.3 L 462.1 172.0 L 471.8 167.3 L 481.4 162.5 L 491.1 162.5 L 500.8 164.9 L 510.5 169.6 L 520.1 169.6 L 529.8 169.6 L 539.5 167.3 L 549.2 164.9 L 558.9 167.3 L 568.5 169.6 L 578.2 167.3 L 587.9 160.2 L 597.6 167.3 L 607.2 169.6 L 616.9 164.9 L 626.6 167.3 L 636.3 164.9 L 645.9 164.9 L 655.6 169.6 L 665.3 169.6 L 675.0 169.6 L 684.6 164.9 L 694.3 160.2 L 704.0 157.8" fill="none" stroke="#3987e5" stroke-width="2" stroke-linejoin="round" stroke-linecap="round"/>
<circle cx="704.0" cy="157.8" r="4" fill="#3987e5" stroke="#1a1a19" stroke-width="2"/>
<text x="704.0" y="147.8" text-anchor="end" font-size="12" font-weight="600" fill="#ffffff">6</text>
<text x="46" y="192" font-size="10" fill="#898781">Jul 24</text>
<text x="704" y="192" text-anchor="end" font-size="10" fill="#898781">Sep 30</text>
</svg>
